<?xml version="1.0" standalone="no"?>
<!DOCTYPE svg PUBLIC "-//W3C//DTD SVG 20010904//EN"
 "http://www.w3.org/TR/2001/REC-SVG-20010904/DTD/svg10.dtd">
<svg version="1.0" xmlns="http://www.w3.org/2000/svg"
 width="384.000000pt" height="384.000000pt" viewBox="0 0 384.000000 384.000000"
 preserveAspectRatio="xMidYMid meet">

<g transform="translate(0.000000,384.000000) scale(0.100000,-0.100000)"
fill="#000000" stroke="none">
<path d="M1710 3829 c-372 -42 -739 -200 -1025 -441 -49 -42 -108 -95 -130
-117 l-39 -41 596 0 595 0 -23 47 c-35 68 -28 141 18 190 32 34 100 26 169
-20 41 -26 55 -27 92 -3 36 24 95 45 129 46 58 1 104 -106 78 -184 -6 -19 -20
-46 -31 -60 l-20 -26 607 0 608 0 -44 46 c-234 241 -578 436 -910 518 -207 51
-465 68 -670 45z"/>
<path d="M1724 3415 c-20 -30 -15 -109 9 -132 11 -12 22 -12 54 -4 50 14 59
24 66 79 5 43 5 44 -36 63 -56 25 -73 24 -93 -6z"/>
<path d="M2023 3421 c-41 -19 -41 -20 -36 -63 7 -54 13 -62 64 -77 35 -11 44
-10 56 2 24 23 29 102 9 132 -20 30 -37 31 -93 6z"/>
<path d="M1899 3359 c-12 -23 1 -69 20 -69 20 0 34 41 22 66 -13 30 -27 30
-42 3z"/>
<path d="M1840 3247 c-14 -6 -26 -11 -27 -12 -1 -1 -10 -18 -18 -39 -16 -38
-16 -39 4 -33 13 3 24 -1 30 -10 10 -18 13 -14 40 55 22 55 18 61 -29 39z"/>
<path d="M1971 3208 c27 -69 30 -73 40 -55 6 9 17 13 30 10 20 -6 20 -5 4 33
-8 21 -17 38 -18 39 -33 15 -60 25 -67 25 -5 0 0 -23 11 -52z"/>
<path d="M1880 3109 l-34 -90 -24 47 c-20 40 -27 45 -48 40 -13 -3 -35 -9 -49
-12 l-25 -6 20 47 c11 26 20 49 20 51 0 2 -283 4 -630 4 l-629 0 -51 -61 -50
-60 0 -1149 0 -1149 46 -58 c64 -80 155 -173 243 -249 l74 -64 1177 0 1177 0
74 64 c88 76 179 169 243 249 l46 58 0 1149 0 1149 -50 60 -51 61 -629 0 -630
0 19 -51 20 -51 -22 5 c-12 3 -34 9 -49 12 -24 6 -29 2 -51 -40 l-24 -48 -34
92 c-19 50 -36 91 -39 91 -3 0 -21 -41 -40 -91z m1235 -936 c66 -120 121 -223
123 -230 3 -10 -21 -13 -103 -13 l-106 0 -17 30 -17 30 -111 0 -112 0 -12 -30
c-7 -16 -19 -30 -27 -30 -8 0 -13 4 -11 10 7 19 263 450 268 450 3 0 59 -98
125 -217z m-1331 92 c33 -63 62 -115 65 -115 4 0 24 46 45 103 44 114 55 132
69 118 8 -8 -181 -461 -193 -461 -3 0 -34 54 -70 120 -35 66 -67 120 -70 120
-3 0 -35 -54 -70 -120 -36 -65 -68 -116 -71 -112 -4 4 -46 102 -94 217 -47
116 -89 216 -92 223 -4 9 19 12 94 12 l99 0 45 -110 c24 -60 46 -110 49 -110
3 0 32 52 65 115 33 63 62 115 65 115 3 0 32 -52 64 -115z m-954 -100 l0 -205
101 0 c76 0 100 -3 97 -12 -4 -10 -52 -13 -199 -13 l-194 0 0 217 0 218 98 0
97 0 0 -205z m440 -15 l0 -221 -97 3 -98 3 -1 218 -2 217 99 0 99 0 0 -220z
m927 3 l-2 -218 -97 -3 -98 -3 0 221 0 220 100 0 99 0 -2 -217z m363 206 c105
-24 167 -120 140 -218 -16 -59 -63 -108 -118 -125 l-47 -13 30 -15 c17 -9 49
-22 73 -28 23 -7 42 -17 42 -22 0 -27 -117 16 -185 68 l-35 26 0 -51 0 -51
-95 0 -95 0 0 220 0 220 123 0 c67 0 142 -5 167 -11z m-1850 -721 l0 -52 53
52 c29 29 60 52 70 52 25 0 22 -6 -23 -46 -22 -20 -40 -41 -40 -46 0 -5 21
-36 46 -69 43 -56 44 -59 22 -59 -15 0 -30 10 -41 28 -39 64 -54 77 -71 63
-10 -8 -16 -29 -16 -52 0 -28 -4 -39 -15 -39 -12 0 -15 19 -15 110 0 91 3 110
15 110 11 0 15 -12 15 -52z m200 -32 c0 -76 2 -86 22 -100 30 -21 44 -20 68 4
17 17 20 33 20 100 0 64 3 80 15 80 12 0 15 -16 15 -84 0 -107 -18 -136 -86
-136 -71 0 -84 21 -84 130 0 73 3 90 15 90 12 0 15 -16 15 -84z m270 1 l55
-82 3 83 c2 60 6 82 15 79 8 -2 13 -38 15 -110 2 -97 1 -107 -15 -107 -11 0
-36 29 -67 75 -27 42 -52 77 -55 79 -3 2 -5 -31 -3 -75 3 -67 1 -79 -12 -79
-14 0 -16 17 -16 110 0 81 3 110 13 110 6 0 37 -37 67 -83z m265 58 c14 -13
25 -29 25 -35 0 -18 -29 -11 -40 10 -8 14 -21 20 -46 20 -65 0 -55 -52 14 -65
47 -8 72 -31 72 -63 0 -42 -27 -62 -81 -62 -39 0 -51 4 -68 26 -12 15 -21 31
-21 35 0 15 28 10 34 -6 16 -42 106 -38 106 4 0 15 -13 24 -52 36 -29 10 -59
24 -65 33 -52 65 63 127 122 67z m222 8 c3 -7 -10 -13 -33 -15 l-37 -3 2 -92
c2 -88 1 -93 -18 -93 -20 0 -21 6 -21 95 l0 95 -35 0 c-33 0 -43 8 -28 24 12
12 166 2 170 -11z m143 -93 c0 -91 -3 -110 -15 -110 -12 0 -15 19 -15 110 0
91 3 110 15 110 12 0 15 -19 15 -110z m131 28 l54 -82 3 82 c2 64 6 82 17 82
12 0 15 -20 15 -110 0 -139 -13 -144 -84 -35 -27 42 -52 77 -55 79 -3 2 -5
-31 -3 -75 3 -67 1 -79 -12 -79 -14 0 -16 17 -16 110 0 87 3 110 14 110 7 0
38 -37 67 -82z m289 67 c0 -10 -11 -15 -35 -15 l-35 0 0 -95 c0 -78 -3 -95
-15 -95 -12 0 -15 17 -15 95 l0 95 -35 0 c-24 0 -35 5 -35 15 0 12 16 15 85
15 69 0 85 -3 85 -15z m180 0 c0 -12 -13 -15 -60 -15 l-60 0 0 -33 0 -32 57 0
c36 0 58 -4 60 -12 4 -10 -12 -13 -56 -13 l-61 0 0 -35 0 -35 65 0 c51 0 65
-3 65 -15 0 -12 -16 -15 -80 -15 l-80 0 0 110 0 110 75 0 c60 0 75 -3 75 -15z
m177 4 c49 -18 59 -66 20 -96 l-24 -17 35 -48 c31 -44 32 -48 13 -48 -12 0
-31 16 -50 44 -22 32 -39 45 -61 48 -30 5 -30 4 -30 -44 0 -36 -4 -48 -15 -48
-12 0 -15 19 -15 110 l0 110 49 0 c27 0 62 -5 78 -11z m123 -99 c0 -91 -3
-110 -15 -110 -12 0 -15 19 -15 110 0 91 3 110 15 110 12 0 15 -19 15 -110z
m181 99 c15 -8 24 -7 35 2 19 15 30 4 15 -15 -9 -11 -10 -20 -2 -35 6 -11 11
-38 11 -61 0 -60 -41 -100 -104 -100 -24 0 -48 5 -51 11 -5 7 -13 5 -25 -6
-10 -9 -21 -12 -24 -7 -3 5 1 15 9 22 11 9 12 17 5 30 -15 29 -12 103 6 128
27 39 85 53 125 31z m250 -18 c25 -31 24 -48 -5 -74 l-24 -21 29 -42 c34 -50
35 -54 12 -54 -10 0 -30 20 -46 45 -25 39 -33 45 -63 45 -34 0 -34 0 -34 -45
0 -33 -4 -45 -15 -45 -12 0 -15 18 -15 103 0 57 3 107 8 111 4 4 36 6 71 4 52
-3 67 -8 82 -27z m-2201 -344 c15 -8 31 -29 40 -55 13 -37 13 -47 0 -84 -18
-51 -46 -68 -117 -68 l-53 0 0 110 0 110 53 0 c28 0 63 -6 77 -13z m240 -2 c0
-12 -13 -15 -60 -15 -60 0 -60 0 -60 -30 0 -28 1 -29 57 -32 81 -4 85 -28 4
-28 l-61 0 0 -35 0 -35 65 0 c51 0 65 -3 65 -15 0 -12 -16 -15 -80 -15 l-80 0
0 110 0 110 75 0 c60 0 75 -3 75 -15z m75 -83 l0 -92 53 0 c40 0 52 -4 52 -15
0 -12 -14 -15 -70 -15 l-70 0 0 103 c0 57 3 107 7 111 20 19 28 -7 28 -92z
m175 -12 c0 -91 -3 -110 -15 -110 -12 0 -15 19 -15 110 0 91 3 110 15 110 12
0 15 -19 15 -110z m70 58 l0 -52 53 52 c48 47 87 67 87 43 0 -5 -19 -25 -42
-44 l-42 -35 47 -62 46 -62 14 33 c7 19 26 67 41 107 21 54 32 72 44 70 11 -2
33 -41 59 -103 48 -116 48 -115 27 -115 -8 0 -22 16 -30 35 -13 32 -18 35 -55
35 -36 0 -41 -3 -55 -35 -12 -30 -19 -35 -49 -35 -31 0 -39 6 -71 55 -35 53
-38 55 -56 39 -11 -11 -18 -31 -18 -56 0 -27 -4 -38 -15 -38 -12 0 -15 19 -15
110 0 91 3 110 15 110 11 0 15 -12 15 -52z m530 37 c0 -10 -11 -15 -35 -15
l-35 0 0 -95 c0 -78 -3 -95 -15 -95 -12 0 -15 17 -15 95 l0 95 -35 0 c-24 0
-35 5 -35 15 0 12 16 15 85 15 69 0 85 -3 85 -15z m180 0 c0 -12 -13 -15 -60
-15 -60 0 -60 0 -60 -30 0 -28 1 -29 57 -32 81 -4 85 -28 4 -28 l-61 0 0 -35
0 -35 65 0 c51 0 65 -3 65 -15 0 -12 -16 -15 -80 -15 l-80 0 0 110 0 110 75 0
c60 0 75 -3 75 -15z m180 -5 c11 -11 20 -27 20 -35 0 -22 -28 -18 -35 5 -7 23
-66 28 -83 7 -16 -19 -2 -34 46 -46 77 -21 104 -70 60 -111 -44 -41 -148 -16
-148 35 0 22 23 18 38 -5 15 -24 73 -27 92 -5 18 22 -3 43 -57 56 -38 10 -73
39 -73 60 0 3 9 18 21 33 26 33 88 37 119 6z m200 0 c11 -11 20 -27 20 -35 0
-22 -28 -18 -35 5 -7 23 -66 28 -83 7 -17 -20 -1 -34 58 -54 43 -14 57 -24 64
-45 8 -23 6 -32 -14 -53 -43 -46 -150 -25 -150 30 0 22 23 18 38 -5 15 -24 73
-27 92 -5 18 22 -3 43 -57 56 -38 10 -73 39 -73 60 0 3 9 18 21 33 26 33 88
37 119 6z m220 5 c0 -12 -13 -15 -60 -15 l-60 0 0 -30 c0 -30 1 -30 55 -30 42
0 55 -3 55 -15 0 -12 -13 -15 -55 -15 l-55 0 0 -35 0 -35 65 0 c51 0 65 -3 65
-15 0 -12 -15 -15 -79 -15 l-80 0 -3 106 c-2 58 -1 108 1 110 2 2 37 4 78 4
58 0 73 -3 73 -15z m206 -10 c20 -28 17 -54 -10 -78 l-23 -21 28 -39 c33 -45
36 -57 14 -57 -8 0 -28 20 -45 45 -30 43 -67 64 -89 50 -6 -3 -11 -26 -11 -51
0 -32 -4 -44 -15 -44 -12 0 -15 19 -15 111 l0 111 76 -4 c60 -3 79 -7 90 -23z"/>
<path d="M2883 2168 c-21 -27 -84 -141 -80 -145 3 -2 42 -3 89 -1 l84 3 -41
78 c-31 58 -44 74 -52 65z"/>
<path d="M2465 2342 c-3 -3 -5 -67 -5 -142 0 -120 2 -139 18 -153 26 -23 80
-21 126 6 99 56 102 204 6 260 -30 18 -135 39 -145 29z"/>
<path d="M2490 1626 c0 -35 1 -36 38 -36 89 0 96 62 8 68 l-46 3 0 -35z"/>
<path d="M2800 1640 c-14 -14 -20 -33 -20 -66 0 -25 3 -44 8 -42 20 9 103 108
97 117 -11 18 -64 12 -85 -9z"/>
<path d="M2874 1587 c-66 -72 -69 -77 -54 -87 43 -27 100 16 100 74 0 48 -12
51 -46 13z"/>
<path d="M3010 1625 c0 -35 0 -35 44 -35 54 0 81 21 66 51 -8 15 -22 19 -60
19 l-50 0 0 -35z"/>
<path d="M840 1220 l0 -80 38 0 c46 0 58 8 72 45 23 60 -11 115 -72 115 l-38
0 0 -80z"/>
<path d="M1732 1251 c-16 -52 -16 -51 19 -51 32 0 33 2 8 68 -11 30 -14 28
-27 -17z"/>
<path d="M2882 1268 c3 -28 7 -34 32 -36 40 -5 73 5 80 24 11 28 -13 44 -66
44 l-49 0 3 -32z"/>
<path d="M309 2962 c-215 -334 -320 -713 -306 -1102 14 -382 123 -715 336
-1030 l31 -45 0 1133 c0 622 -1 1132 -2 1132 -2 0 -28 -39 -59 -88z"/>
<path d="M3471 1920 l0 -1125 24 30 c33 40 93 140 145 245 248 495 265 1081
46 1604 -45 106 -144 284 -191 342 l-24 29 0 -1125z"/>
<path d="M826 342 c59 -42 149 -95 244 -142 282 -141 593 -209 910 -197 382
14 715 123 1030 336 l45 31 -1134 0 -1134 0 39 -28z"/>
</g>
</svg>
